<svg width="18" height="16" viewBox="0 0 18 16" fill="none" xmlns="http://www.w3.org/2000/svg">
<path d="M17 5.78125V1C17 0.75 16.7812 0 16 0C15.75 0 15.5312 0.09375 15.375 0.25L12.6875 2.375C11.375 3.4375 9.6875 4 8 4H2C0.875 4 0 4.90625 0 6V9C0 10.125 0.875 11 2 11L1.96875 12C1.96875 13.25 2.25 14.4375 2.78125 15.4688C2.9375 15.8125 3.28125 16 3.65625 16H6.96875C7.78125 16 8.28125 15.0938 7.78125 14.4375C7.28125 13.75 6.96875 12.9375 6.96875 12C6.96875 11.6562 7.03125 11.3438 7.09375 11H8C9.6875 11 11.375 11.5938 12.6875 12.6562L15.375 14.7812C15.5 14.9062 15.7812 15 15.9688 15C16.75 15 16.9688 14.3125 16.9688 14V9.25C17.5938 8.90625 17.9688 8.25 17.9688 7.5C18 6.78125 17.5938 6.125 17 5.78125ZM6.96875 15H3.65625C3.21875 14.0625 2.96875 13.0625 2.96875 12.0312V11.0312L3 11H6.09375C6.03125 11.3438 5.96875 11.6875 5.96875 12C5.96875 13.125 6.3125 14.1562 6.96875 15ZM2 10C1.4375 10 1 9.5625 1 9V6C1 5.46875 1.4375 5 2 5H8V10H2ZM16 13.9688C16 14 15.9688 14 15.9688 14L13.3125 11.875C12.0625 10.875 10.5625 10.2812 9 10.0938V4.9375C10.5625 4.75 12.0625 4.125 13.3125 3.15625L15.9688 1.03125C15.9688 1.03125 15.9688 1.03125 16 1.03125V13.9688Z" fill="#76A0F0"/>
</svg>
