<svg width="16" height="12" viewBox="0 0 16 12" fill="none" xmlns="http://www.w3.org/2000/svg">
<path d="M15.75 11H1V0.25C1 0.125 0.875 0 0.75 0H0.25C0.09375 0 0 0.125 0 0.25V11.5C0 11.7812 0.21875 12 0.5 12H15.75C15.875 12 16 11.9062 16 11.75V11.25C16 11.125 15.875 11 15.75 11ZM3.0625 6.25C2.96875 6.34375 2.96875 6.5 3.0625 6.59375L3.40625 6.9375C3.5 7.03125 3.65625 7.03125 3.75 6.9375L6.03125 4.6875L8.6875 7.34375C8.875 7.53125 9.1875 7.53125 9.375 7.34375L12.3125 4.40625L13.6875 5.78125C13.8438 5.9375 14.0312 6 14.2188 6C14.625 6 15 5.71875 15 5.25V1.53125C15 1.25 14.75 1 14.4688 1H10.75C10.0625 1 9.71875 1.84375 10.2188 2.3125L11.5938 3.71875L9.03125 6.28125L6.40625 3.625C6.1875 3.4375 5.875 3.4375 5.6875 3.625L3.0625 6.25ZM11.3125 2H14V4.6875L11.3125 2Z" fill="#76A0F0"/>
</svg>
