<svg width="19" height="17" viewBox="0 0 19 17" fill="none" xmlns="http://www.w3.org/2000/svg">
<path d="M8.125 16C8.21875 16.0312 8.34375 15.9687 8.34375 15.875L12.75 0.4687C12.7812 0.37495 12.7188 0.2812 12.625 0.24995L11.8438 0.0312003C11.75 -4.96618e-05 11.6562 0.0624503 11.625 0.1562L7.21875 15.5625C7.1875 15.6562 7.25 15.75 7.34375 15.7812L8.125 16ZM5.75 12.0937L6.34375 11.4375C6.40625 11.375 6.40625 11.2812 6.3125 11.2187L2.53125 7.99995L6.3125 4.81245C6.40625 4.74995 6.40625 4.6562 6.34375 4.5937L5.75 3.93745C5.71875 3.87495 5.59375 3.87495 5.53125 3.93745L1.03125 7.9062C0.96875 7.9687 0.96875 8.06245 1.03125 8.12495L5.53125 12.0937C5.59375 12.1562 5.71875 12.1562 5.75 12.0937ZM14.4375 12.0937L18.9375 8.12495C19 8.06245 19 7.9687 18.9375 7.9062L14.4375 3.93745C14.375 3.87495 14.2812 3.87495 14.2188 3.93745L13.625 4.5937C13.5625 4.6562 13.5938 4.74995 13.6562 4.81245L17.4375 7.99995L13.6562 11.2187C13.5938 11.2812 13.5625 11.375 13.625 11.4375L14.2188 12.0937C14.25 12.1562 14.375 12.1562 14.4375 12.0937Z" fill="#76A0F0"/>
</svg>
