<svg width="20" height="14" viewBox="0 0 20 14" fill="none" xmlns="http://www.w3.org/2000/svg">
<path d="M17 6C18.375 6 19.5 4.90625 19.5 3.5C19.5 2.125 18.375 1 17 1C15.5938 1 14.5 2.125 14.5 3.5C14.5 4.90625 15.5938 6 17 6ZM17 2C17.8125 2 18.5 2.6875 18.5 3.5C18.5 4.34375 17.8125 5 17 5C16.1562 5 15.5 4.34375 15.5 3.5C15.5 2.6875 16.1562 2 17 2ZM10 7C11.9062 7 13.5 5.4375 13.5 3.5C13.5 1.59375 11.9062 0 10 0C8.0625 0 6.5 1.59375 6.5 3.5C6.5 5.4375 8.0625 7 10 7ZM10 1C11.375 1 12.5 2.125 12.5 3.5C12.5 4.90625 11.375 6 10 6C8.59375 6 7.5 4.90625 7.5 3.5C7.5 2.125 8.59375 1 10 1ZM17.625 7H16.375C15.875 7 15.4375 7.15625 15.0625 7.40625C15.375 7.625 15.625 7.84375 15.875 8.125C16.0312 8.0625 16.1875 8 16.375 8H17.625C18.375 8 19 8.6875 19 9.5C19 9.78125 19.2188 10 19.5 10C19.75 10 20 9.78125 20 9.5C20 8.125 18.9062 7 17.625 7ZM3 6C4.375 6 5.5 4.90625 5.5 3.5C5.5 2.125 4.375 1 3 1C1.59375 1 0.5 2.125 0.5 3.5C0.5 4.90625 1.59375 6 3 6ZM3 2C3.8125 2 4.5 2.6875 4.5 3.5C4.5 4.34375 3.8125 5 3 5C2.15625 5 1.5 4.34375 1.5 3.5C1.5 2.6875 2.15625 2 3 2ZM12.5 7.625C11.4375 7.625 11.1875 8 10 8C8.78125 8 8.53125 7.625 7.46875 7.625C6.34375 7.625 5.25 8.15625 4.59375 9.09375C4.21875 9.6875 4 10.375 4 11.125V12.5C4 13.3438 4.65625 14 5.5 14H14.5C15.3125 14 16 13.3438 16 12.5V11.125C16 10.375 15.75 9.6875 15.375 9.09375C14.7188 8.15625 13.625 7.625 12.5 7.625ZM15 12.5C15 12.7812 14.75 13 14.5 13H5.5C5.21875 13 5 12.7812 5 12.5V11.125C5 10.5938 5.125 10.0938 5.4375 9.65625C5.84375 9.03125 6.625 8.625 7.46875 8.625C8.34375 8.625 8.65625 9 10 9C11.3438 9 11.625 8.625 12.5 8.625C13.3438 8.625 14.125 9.03125 14.5312 9.65625C14.8438 10.0938 14.9688 10.5938 14.9688 11.125V12.5H15ZM4.90625 7.40625C4.53125 7.15625 4.09375 7 3.625 7H2.375C1.0625 7 0 8.125 0 9.5C0 9.78125 0.21875 10 0.5 10C0.75 10 1 9.78125 1 9.5C1 8.6875 1.59375 8 2.375 8H3.625C3.78125 8 3.9375 8.0625 4.09375 8.125C4.34375 7.84375 4.59375 7.625 4.90625 7.40625Z" fill="#76A0F0"/>
</svg>
