<svg width="14" height="16" viewBox="0 0 14 16" fill="none" xmlns="http://www.w3.org/2000/svg">
<path d="M6.25 2C5.8125 2 5.5 2.34375 5.5 2.75C5.5 3.1875 5.8125 3.5 6.25 3.5C6.65625 3.5 7 3.1875 7 2.75C7 2.34375 6.65625 2 6.25 2ZM13 11H7.5V6.96875C9.1875 6.71875 10.5 5.28125 10.5 3.5C10.5 1.59375 8.90625 0 7 0C5.0625 0 3.5 1.59375 3.5 3.5C3.5 5.28125 4.78125 6.71875 6.5 6.96875V11H4V10.5C4 10.25 3.75 10 3.5 10H2.5C2.21875 10 2 10.25 2 10.5V11H1C0.4375 11 0 11.4688 0 12V15C0 15.5625 0.4375 16 1 16H13C13.5312 16 14 15.5625 14 15V12C14 11.4688 13.5312 11 13 11ZM4.5 3.5C4.5 2.125 5.59375 1 7 1C8.375 1 9.5 2.125 9.5 3.5C9.5 4.90625 8.375 6 7 6C5.59375 6 4.5 4.90625 4.5 3.5ZM13 15H1V12H13V15Z" fill="#76A0F0"/>
</svg>
