<svg width="18" height="14" viewBox="0 0 18 14" fill="none" xmlns="http://www.w3.org/2000/svg">
<path d="M11.25 9H14.75C14.875 9 15 8.90625 15 8.75V8.25C15 8.125 14.875 8 14.75 8H11.25C11.0938 8 11 8.125 11 8.25V8.75C11 8.90625 11.0938 9 11.25 9ZM11.25 7H14.75C14.875 7 15 6.90625 15 6.75V6.25C15 6.125 14.875 6 14.75 6H11.25C11.0938 6 11 6.125 11 6.25V6.75C11 6.90625 11.0938 7 11.25 7ZM11.25 11H14.75C14.875 11 15 10.9062 15 10.75V10.25C15 10.125 14.875 10 14.75 10H11.25C11.0938 10 11 10.125 11 10.25V10.75C11 10.9062 11.0938 11 11.25 11ZM6 10C7.375 10 8.5 8.90625 8.5 7.5C8.5 6.125 7.375 5 6 5C4.59375 5 3.5 6.125 3.5 7.5C3.5 8.90625 4.59375 10 6 10ZM6 6C6.8125 6 7.5 6.6875 7.5 7.5C7.5 8.34375 6.8125 9 6 9C5.15625 9 4.5 8.34375 4.5 7.5C4.5 6.6875 5.15625 6 6 6ZM16 0H2C0.875 0 0 0.90625 0 2V12C0 13.125 0.875 14 2 14H16C17.0938 14 18 13.125 18 12V2C18 0.90625 17.0938 0 16 0ZM8.5 13H3.5V12.5312C3.5 12.3125 3.5625 12.125 3.6875 11.9375C3.84375 11.6562 4.15625 11.5312 4.53125 11.5312C4.90625 11.5312 5.1875 11.75 6 11.75C6.8125 11.75 7.0625 11.5312 7.4375 11.5312C7.8125 11.5312 8.125 11.6875 8.3125 11.9375C8.4375 12.125 8.5 12.3125 8.5 12.5312V13ZM17 12C17 12.5625 16.5312 13 16 13H9.5V12.5312C9.5 12.0938 9.34375 11.7188 9.125 11.375C8.75 10.8125 8.09375 10.5 7.4375 10.5C6.84375 10.5 6.6875 10.7188 6 10.7188C5.28125 10.7188 5.125 10.5 4.53125 10.5C3.875 10.5 3.21875 10.8125 2.84375 11.375C2.625 11.7188 2.5 12.0938 2.5 12.5312V13H2C1.4375 13 1 12.5625 1 12V4H17V12ZM17 3H1V2C1 1.46875 1.4375 1 2 1H16C16.5312 1 17 1.46875 17 2V3Z" fill="#76A0F0"/>
</svg>
