<svg width="14" height="10" viewBox="0 0 14 10" fill="none" xmlns="http://www.w3.org/2000/svg">
<path d="M5.34766 5.85547L4.07812 7.14453V1.34375C4.07812 1.08984 3.86328 0.875 3.60938 0.875H3.14062C2.86719 0.875 2.67188 1.08984 2.67188 1.34375V7.14453L1.38281 5.85547C1.20703 5.67969 0.894531 5.67969 0.71875 5.85547L0.386719 6.1875C0.210938 6.36328 0.210938 6.67578 0.386719 6.85156L3.04297 9.48828C3.21875 9.68359 3.51172 9.68359 3.6875 9.48828L6.34375 6.85156C6.51953 6.67578 6.51953 6.36328 6.34375 6.1875L6.01172 5.85547C5.83594 5.67969 5.52344 5.67969 5.34766 5.85547ZM8.63281 4.66406L9.92188 3.375V9.15625C9.92188 9.42969 10.1172 9.625 10.3906 9.625H10.8594C11.1133 9.625 11.3281 9.42969 11.3281 9.15625V3.375L12.5977 4.66406C12.7734 4.83984 13.0859 4.83984 13.2617 4.66406L13.5938 4.33203C13.7695 4.15625 13.7695 3.84375 13.5938 3.66797L10.9375 1.03125C10.7617 0.835938 10.4688 0.835938 10.293 1.03125L7.63672 3.66797C7.46094 3.84375 7.46094 4.15625 7.63672 4.33203L7.96875 4.66406C8.14453 4.83984 8.45703 4.83984 8.63281 4.66406Z" fill="#7C7C7C"/>
</svg>
